<svg id="Capa_1" data-name="Capa 1" xmlns="http://www.w3.org/2000/svg" viewBox="0 0 865.2 469.08" class="UAX_logo"><defs><style>
          .cls-1 {
            fill: #0060af;
          }

          .cls-2 {
            fill: #1c1c1c;
          }
        </style></defs><path class="cls-2" d="M266.46,263.7c0,8.68-1.46,16.51-4.39,23.46-2.94,6.95-6.96,12.84-12.06,17.67-5.1,4.84-10.94,8.53-17.51,11.08-6.57,2.56-13.5,3.83-20.77,3.83s-13.89-1.25-20.52-3.74c-6.63-2.5-12.49-6.16-17.59-11-5.1-4.84-9.15-10.72-12.13-17.68-2.99-6.95-4.49-14.82-4.49-23.61V117.27h-39.73v147.4c0,18.57,3.99,34.75,11.97,48.53,7.97,13.8,19.06,24.5,33.22,32.09,14.17,7.6,30.59,11.41,49.27,11.41s35.11-3.81,49.28-11.41c14.17-7.59,25.25-18.29,33.22-32.09,7.98-13.79,11.97-29.97,11.97-48.53V117.27h-39.74v146.43Z"></path><path class="cls-2" d="M399.7,117.27l-73.95,234.55h40.39l16.01-50.82h92.39l16.21,50.82h40.39l-73.94-234.55h-57.49Zm-6,147.08l34.37-109.1,34.79,109.1h-69.16Z"></path><polygon class="cls-1" points="747.92 117.27 699.55 117.27 644.41 234.55 589.27 117.27 540.9 117.27 596.03 234.55 540.9 351.82 589.27 351.82 644.41 234.55 699.55 351.82 747.92 351.82 692.79 234.55 747.92 117.27"></polygon></svg>
